<svg aria-hidden="true" style="position: absolute; width: 0; height: 0; overflow: hidden;" version="1.1" xmlns="http://www.w3.org/2000/svg" xmlns:xlink="http://www.w3.org/1999/xlink">
<defs>
<symbol id="icon-back" viewBox="0 0 39 32">
<path fill="#4f4333" style="fill: var(--color1, #4f4333)" d="M5.253 12.368l-1.778 1.776-1.778-1.776 1.778-1.776 1.778 1.776zM37.253 28.35c0 0.512 0.363 1.413 0 1.776-0.363 0.361-1.266 0-1.778 0s-1.415 0.361-1.778 0c-0.363-0.363 0-1.264 0-1.778h3.556zM12.364 23.022l-8.889-8.878 1.778-3.552 10.667 10.654-3.556 1.778zM3.476 10.592l8.889-8.878 3.556 3.552-10.667 8.878-1.778-3.552zM5.253 10.592h17.778v3.552h-17.778v-3.552zM37.253 24.798v3.552h-3.556v-3.552h3.556zM23.031 10.594c3.586 0 8.132 1.013 10.667 3.55 2.535 2.535 3.556 7.068 3.556 10.654h-3.556c0-2.562-1.744-5.291-3.556-7.102-1.81-1.813-4.551-3.552-7.111-3.552v-3.552z"></path>
</symbol>
<symbol id="icon-right" viewBox="0 0 17 32">
<path d="M16.761 17.676l-13.409 13.409-3.351-3.351 11.732-11.734-11.732-11.734 3.351-3.35 13.409 13.409c0.429 0.429 0.694 1.021 0.694 1.676s-0.265 1.247-0.694 1.676l0-0z"></path>
</symbol>
<symbol id="icon-burger" viewBox="0 0 37 32">
<path d="M0 2.286c0-1.262 1.023-2.286 2.286-2.286v0h32c1.262 0 2.286 1.023 2.286 2.286s-1.023 2.286-2.286 2.286v0h-32c-1.262 0-2.286-1.023-2.286-2.286v0zM0 16c0-1.262 1.023-2.286 2.286-2.286v0h32c1.262 0 2.286 1.023 2.286 2.286s-1.023 2.286-2.286 2.286v0h-32c-1.262 0-2.286-1.023-2.286-2.286v0zM2.286 27.429c-1.262 0-2.286 1.023-2.286 2.286s1.023 2.286 2.286 2.286v0h32c1.262 0 2.286-1.023 2.286-2.286s-1.023-2.286-2.286-2.286v0h-32z"></path>
</symbol>
<symbol id="icon-google" viewBox="0 0 28 32">
<path fill="#ea4335" style="fill: var(--color2, #ea4335)" d="M13.284 15.256l-13.165 14.037c0.147 0.533 0.414 1.025 0.776 1.438s0.814 0.735 1.319 0.943c0.396 0.168 0.858 0.266 1.341 0.266 0.661 0 1.28-0.183 1.808-0.5l-0.016 0.009 14.815-8.585-6.879-7.609z"></path>
<path fill="#fbbc04" style="fill: var(--color3, #fbbc04)" d="M26.596 12.87l-6.406-3.735-7.211 6.439 7.241 7.269 6.356-3.694c0.57-0.309 1.032-0.752 1.355-1.288l0.009-0.016c0.317-0.525 0.505-1.158 0.505-1.836s-0.188-1.311-0.514-1.852l0.009 0.016c-0.331-0.552-0.793-0.995-1.345-1.295l-0.018-0.009h0.018z"></path>
<path fill="#4285f4" style="fill: var(--color4, #4285f4)" d="M0.119 2.655c-0.081 0.3-0.12 0.609-0.119 0.92v24.799c0 0.311 0.040 0.619 0.119 0.919l13.617-13.677-13.618-12.96z"></path>
<path fill="#34a853" style="fill: var(--color5, #34a853)" d="M13.382 15.974l6.809-6.839-14.795-8.626c-0.524-0.318-1.157-0.507-1.834-0.51h-0.001c-1.6-0.004-3.008 1.079-3.443 2.645l13.262 13.329z"></path>
</symbol>
</defs>
</svg>
